<?xml version="1.0" encoding="UTF-8"?>
<!DOCTYPE svg PUBLIC "-//W3C//DTD SVG 1.1//EN" "http://www.w3.org/Graphics/SVG/1.1/DTD/svg11.dtd">
<svg xmlns="http://www.w3.org/2000/svg" version="1.1" width="256px" height="256px" style="shape-rendering:geometricPrecision; text-rendering:geometricPrecision; image-rendering:optimizeQuality; fill-rule:evenodd; clip-rule:evenodd" xmlns:xlink="http://www.w3.org/1999/xlink">
<g><path style="opacity:0.999" fill="#0e0e0e" d="M 113.5,-0.5 C 122.833,-0.5 132.167,-0.5 141.5,-0.5C 205.833,11.1667 243.833,49.1667 255.5,113.5C 255.5,122.833 255.5,132.167 255.5,141.5C 243.709,206.291 205.376,244.291 140.5,255.5C 131.833,255.5 123.167,255.5 114.5,255.5C 49.1667,244.167 10.8333,205.833 -0.5,140.5C -0.5,131.833 -0.5,123.167 -0.5,114.5C 10.7091,49.6242 48.7091,11.2908 113.5,-0.5 Z M 123.5,87.5 C 149.871,88.0111 164.538,101.344 167.5,127.5C 165.167,151.833 151.833,165.167 127.5,167.5C 103.167,165.167 89.8337,151.834 87.5,127.5C 89.4387,104.903 101.439,91.57 123.5,87.5 Z"/></g>
<g><path style="opacity:1" fill="#e7c6a7" d="M 114.5,7.5 C 165.811,5.0676 204.977,25.4009 232,68.5C 255.325,114.875 251.992,159.208 222,201.5C 193.991,234.737 158.158,249.904 114.5,247C 58.9726,237.806 24.1393,205.972 10,151.5C 1.76455,95.8176 21.2645,52.9843 68.5,23C 83.0718,15.1957 98.4051,10.029 114.5,7.5 Z M 123.5,87.5 C 101.439,91.57 89.4387,104.903 87.5,127.5C 89.8337,151.834 103.167,165.167 127.5,167.5C 151.833,165.167 165.167,151.833 167.5,127.5C 164.538,101.344 149.871,88.0111 123.5,87.5 Z"/></g>
<g><path style="opacity:1" fill="#090909" d="M 119.5,17.5 C 124.844,17.334 130.177,17.5006 135.5,18C 146.062,22.8958 156.395,28.2291 166.5,34C 176.202,36.8429 185.869,39.8429 195.5,43C 203.726,46.8927 209.559,53.0594 213,61.5C 215.598,71.2943 218.598,80.961 222,90.5C 227.781,99.7271 232.781,109.394 237,119.5C 237.667,124.833 237.667,130.167 237,135.5C 232.104,146.062 226.771,156.395 221,166.5C 218.157,176.202 215.157,185.869 212,195.5C 208.5,203 203,208.5 195.5,212C 185.869,215.157 176.202,218.157 166.5,221C 156.395,226.771 146.062,232.104 135.5,237C 130.167,237.667 124.833,237.667 119.5,237C 109.394,232.781 99.7271,227.781 90.5,222C 80.961,218.598 71.2943,215.598 61.5,213C 53.0594,209.559 46.8927,203.726 43,195.5C 39.8429,185.869 36.8429,176.202 34,166.5C 28.2291,156.395 22.8958,146.062 18,135.5C 17.3333,130.167 17.3333,124.833 18,119.5C 22.2193,109.394 27.2193,99.7271 33,90.5C 36.4018,80.961 39.4018,71.2943 42,61.5C 45.8333,52.3333 52.3333,45.8333 61.5,42C 71.2943,39.4018 80.961,36.4018 90.5,33C 99.9422,27.2808 109.609,22.1141 119.5,17.5 Z M 123.5,87.5 C 101.439,91.57 89.4387,104.903 87.5,127.5C 89.8337,151.834 103.167,165.167 127.5,167.5C 151.833,165.167 165.167,151.833 167.5,127.5C 164.538,101.344 149.871,88.0111 123.5,87.5 Z"/></g>
<g><path style="opacity:1" fill="#fb86af" d="M 143.5,30.5 C 143.973,31.9063 144.973,32.573 146.5,32.5C 151.332,35.4684 156.332,38.3017 161.5,41C 171.265,44.6102 181.265,47.6102 191.5,50C 198.732,52.899 203.565,58.0657 206,65.5C 208.511,74.5456 211.178,83.5456 214,92.5C 219.29,102.083 224.29,111.749 229,121.5C 229.667,125.5 229.667,129.5 229,133.5C 224.862,143.302 219.862,152.635 214,161.5C 210.545,172.866 206.878,184.2 203,195.5C 200.382,200.116 196.549,203.283 191.5,205C 172.338,208.866 154.671,216.199 138.5,227C 130.848,230.28 123.181,230.28 115.5,227C 107.996,222.413 100.329,218.08 92.5,214C 81.2246,211.099 70.2246,207.433 59.5,203C 55.5191,199.891 52.3525,196.058 50,191.5C 47.6117,181.272 44.6117,171.272 41,161.5C 36.9098,153.648 32.5765,145.982 28,138.5C 24.7199,130.848 24.7199,123.181 28,115.5C 32.5865,107.996 36.9199,100.329 41,92.5C 43.8219,83.5456 46.4886,74.5456 49,65.5C 51.1939,59.9263 54.6939,55.4263 59.5,52C 70.2246,47.5673 81.2246,43.9007 92.5,41C 101.167,36.3333 109.833,31.6667 118.5,27C 123.411,25.5076 128.411,25.1743 133.5,26C 136.965,27.3218 140.298,28.8218 143.5,30.5 Z M 123.5,87.5 C 101.439,91.57 89.4387,104.903 87.5,127.5C 89.8337,151.834 103.167,165.167 127.5,167.5C 151.833,165.167 165.167,151.833 167.5,127.5C 164.538,101.344 149.871,88.0111 123.5,87.5 Z"/></g>
<g><path style="opacity:1" fill="#898989" d="M 143.5,30.5 C 145.027,30.427 146.027,31.0937 146.5,32.5C 144.973,32.573 143.973,31.9063 143.5,30.5 Z"/></g>
<g><path style="opacity:1" fill="#090909" d="M 100.5,46.5 C 105.939,45.5022 107.939,47.5022 106.5,52.5C 102.639,55.5276 98.6388,58.3609 94.5,61C 88.7816,64.1061 86.2816,62.6061 87,56.5C 91.683,53.3034 96.183,49.97 100.5,46.5 Z"/></g>
<g><path style="opacity:1" fill="#070707" d="M 135.5,46.5 C 137.792,46.2436 139.959,46.5769 142,47.5C 142.802,52.419 142.635,57.2523 141.5,62C 138.937,62.9181 136.77,62.4181 135,60.5C 134.283,55.7804 134.45,51.1138 135.5,46.5 Z"/></g>
<g><path style="opacity:1" fill="#0b0b0b" d="M 114.5,59.5 C 117.518,59.3354 120.518,59.502 123.5,60C 124.769,62.1385 124.769,64.3052 123.5,66.5C 120.177,67.7571 116.844,67.7571 113.5,66.5C 112.073,63.8845 112.406,61.5511 114.5,59.5 Z"/></g>
<g><path style="opacity:1" fill="#0c0c0c" d="M 162.5,59.5 C 168.067,58.7532 169.9,61.0866 168,66.5C 166.545,69.9121 164.712,73.0788 162.5,76C 160.866,76.4935 159.199,76.6602 157.5,76.5C 157.481,74.9397 157.148,73.4397 156.5,72C 158.377,67.7461 160.377,63.5794 162.5,59.5 Z"/></g>
<g><path style="opacity:1" fill="#080808" d="M 78.5,68.5 C 83.0289,68.4961 86.5289,70.4961 89,74.5C 89.8333,79 88,80.8333 83.5,80C 78.3664,77.5745 76.6998,73.7411 78.5,68.5 Z"/></g>
<g><path style="opacity:1" fill="#0f0f0f" d="M 184.5,68.5 C 187.85,68.335 191.183,68.5017 194.5,69C 196.58,74.2625 194.746,76.7625 189,76.5C 183.732,76.076 182.232,73.4094 184.5,68.5 Z"/></g>
<g><path style="opacity:1" fill="#111111" d="M 61.5,72.5 C 65.9226,72.7445 68.7559,75.0778 70,79.5C 72.0358,82.8956 71.8691,86.0622 69.5,89C 68.1667,89.6667 66.8333,89.6667 65.5,89C 61.8041,84.7913 59.9708,79.9579 60,74.5C 60.7172,73.9558 61.2172,73.2891 61.5,72.5 Z"/></g>
<g><path style="opacity:0.999" fill="#0e0e0e" d="M 167.5,100.5 C 167.427,102.027 168.094,103.027 169.5,103.5C 178.98,123.131 177.147,141.797 164,159.5C 146.024,176.948 125.857,180.281 103.5,169.5C 103.027,168.094 102.027,167.427 100.5,167.5C 83.4782,154.42 76.6449,137.087 80,115.5C 82.139,111.547 83.9723,107.547 85.5,103.5C 86.9063,103.027 87.573,102.027 87.5,100.5C 96.5269,86.4813 109.527,79.4813 126.5,79.5C 143.902,79.5038 157.569,86.5038 167.5,100.5 Z M 123.5,87.5 C 101.439,91.57 89.4387,104.903 87.5,127.5C 89.8337,151.834 103.167,165.167 127.5,167.5C 151.833,165.167 165.167,151.833 167.5,127.5C 164.538,101.344 149.871,88.0111 123.5,87.5 Z"/></g>
<g><path style="opacity:1" fill="#060606" d="M 184.5,90.5 C 189.531,91.0095 194.198,92.6762 198.5,95.5C 200.914,101.024 199.248,103.191 193.5,102C 190.833,100.667 188.167,99.3333 185.5,98C 183.285,95.7585 182.952,93.2585 184.5,90.5 Z"/></g>
<g><path style="opacity:1" fill="#808080" d="M 87.5,100.5 C 87.573,102.027 86.9063,103.027 85.5,103.5C 85.427,101.973 86.0937,100.973 87.5,100.5 Z"/></g>
<g><path style="opacity:1" fill="#808080" d="M 167.5,100.5 C 168.906,100.973 169.573,101.973 169.5,103.5C 168.094,103.027 167.427,102.027 167.5,100.5 Z"/></g>
<g><path style="opacity:1" fill="#101010" d="M 44.5,103.5 C 47.6492,103.211 50.6492,103.711 53.5,105C 54.9348,107.267 54.6015,109.267 52.5,111C 49.5,111.667 46.5,111.667 43.5,111C 41.771,109.211 41.1043,107.044 41.5,104.5C 42.791,104.737 43.791,104.404 44.5,103.5 Z"/></g>
<g><path style="opacity:1" fill="#171717" d="M 60.5,116.5 C 66.5562,116.281 68.3895,118.948 66,124.5C 63.3509,128.762 59.8509,129.929 55.5,128C 54.9186,127.107 54.5852,126.107 54.5,125C 56.6994,122.302 58.6994,119.468 60.5,116.5 Z"/></g>
<g><path style="opacity:1" fill="#080808" d="M 193.5,121.5 C 199.509,121.334 205.509,121.501 211.5,122C 214.108,124.606 213.775,126.939 210.5,129C 204.833,129.667 199.167,129.667 193.5,129C 192.221,126.502 192.221,124.002 193.5,121.5 Z"/></g>
<g><path style="opacity:1" fill="#0f0f0f" d="M 43.5,138.5 C 50.1157,140.936 55.1157,145.436 58.5,152C 56.7209,155.779 54.0542,156.445 50.5,154C 46.7297,150.903 43.7297,147.236 41.5,143C 42.0439,141.415 42.7106,139.915 43.5,138.5 Z"/></g>
<g><path style="opacity:1" fill="#131313" d="M 202.5,143.5 C 207.987,143.805 211.654,146.638 213.5,152C 212.202,155.205 209.868,156.205 206.5,155C 203.675,152.857 201.675,150.19 200.5,147C 200.862,145.566 201.528,144.399 202.5,143.5 Z"/></g>
<g><path style="opacity:1" fill="#080808" d="M 184.5,152.5 C 188.73,151.563 191.23,153.229 192,157.5C 193.37,161.275 194.536,165.109 195.5,169C 194.313,173.755 191.813,174.589 188,171.5C 186.667,167.5 185.333,163.5 184,159.5C 183.297,157.071 183.463,154.738 184.5,152.5 Z"/></g>
<g><path style="opacity:1" fill="#0a0a0a" d="M 61.5,165.5 C 66.0001,165.164 67.8334,167.164 67,171.5C 65.1667,173.333 63.3333,175.167 61.5,177C 56.3333,178.5 54.5,176.667 56,171.5C 57.3597,168.977 59.193,166.977 61.5,165.5 Z"/></g>
<g><path style="opacity:1" fill="#808080" d="M 100.5,167.5 C 102.027,167.427 103.027,168.094 103.5,169.5C 101.973,169.573 100.973,168.906 100.5,167.5 Z"/></g>
<g><path style="opacity:1" fill="#111111" d="M 169.5,176.5 C 170.873,176.343 172.207,176.51 173.5,177C 176.092,180.85 178.425,184.85 180.5,189C 180.333,191.833 178.833,193.333 176,193.5C 171.566,190.16 168.733,185.66 167.5,180C 167.862,178.566 168.528,177.399 169.5,176.5 Z"/></g>
<g><path style="opacity:1" fill="#0d0d0d" d="M 75.5,181.5 C 81.5826,181.124 86.7493,183.124 91,187.5C 92.1412,190.857 90.9746,192.857 87.5,193.5C 82.0524,192.126 77.7191,189.293 74.5,185C 74.6483,183.744 74.9816,182.577 75.5,181.5 Z"/></g>
<g><path style="opacity:1" fill="#0e0e0e" d="M 138.5,185.5 C 143,185.164 144.833,187.164 144,191.5C 140.939,196.229 136.939,199.896 132,202.5C 127.742,201.702 126.575,199.369 128.5,195.5C 132.188,192.479 135.521,189.146 138.5,185.5 Z"/></g>
<g><path style="opacity:1" fill="#0c0c0c" d="M 106.5,189.5 C 110.525,188.578 112.859,190.078 113.5,194C 112.42,197.662 110.92,201.162 109,204.5C 105.45,207.543 102.95,206.877 101.5,202.5C 103.461,198.251 105.128,193.917 106.5,189.5 Z"/></g>
<g><path style="opacity:1" fill="#090909" d="M 156.5,194.5 C 161.327,193.848 163.16,195.848 162,200.5C 160.167,202.333 158.333,204.167 156.5,206C 151.333,207.5 149.5,205.667 151,200.5C 152.36,197.977 154.193,195.977 156.5,194.5 Z"/></g>
</svg>
